<?xml version="1.0" encoding="utf-8"?>
<svg width="575px" height="561px" viewBox="0 0 575 561" version="1.1" xmlns:xlink="http://www.w3.org/1999/xlink" xmlns="http://www.w3.org/2000/svg">
  <defs>
    <path d="M0 0L575 0L575 511.111L0 511.111L0 0Z" id="path_1" />
    <clipPath id="mask_1">
      <use xlink:href="#path_1" />
    </clipPath>
  </defs>
  <g id="Group" transform="translate(0 0.5)">
    <g id="hand-holding" transform="translate(0 48.415794)">
      <path d="M0 0L575 0L575 511.111L0 511.111L0 0Z" id="Background" fill="none" fill-rule="evenodd" stroke="none" />
      <g clip-path="url(#mask_1)">
        <path d="M557.331 333.021C547.747 324.436 535.269 319.644 522.192 319.644C509.714 319.644 497.435 323.937 487.652 331.823L426.159 381.037C424.262 382.535 421.966 383.333 419.47 383.333L377.943 383.333C382.535 373.75 384.431 362.669 382.734 351.089C378.741 323.238 353.186 303.472 325.035 303.472L180.985 303.472C160.221 303.472 140.056 310.161 123.485 322.639L85.1519 351.389L7.98611 351.389C3.59375 351.389 0 354.983 0 359.375L0 375.347C0 379.74 3.59375 383.333 7.98611 383.333L95.8333 383.333L142.652 348.194C153.733 339.909 167.209 335.417 180.985 335.417L327.431 335.417C340.707 335.417 351.389 346.098 351.389 359.375C351.389 372.652 340.707 383.333 327.431 383.333L239.583 383.333C230.799 383.333 223.611 390.521 223.611 399.306C223.611 408.09 230.799 415.278 239.583 415.278L419.47 415.278C429.154 415.278 438.537 411.984 446.124 405.994L507.617 356.879C511.81 353.485 517.101 351.688 522.192 351.688C527.183 351.688 532.075 353.385 535.968 356.879C546.05 365.964 545.252 381.337 535.069 389.423L434.444 469.983C426.858 476.072 417.474 479.267 407.791 479.267L7.98611 479.267C3.59375 479.267 0 482.86 0 487.253L0 503.225C0 507.617 3.59375 511.211 7.98611 511.211L407.791 511.211C424.761 511.211 441.133 505.421 454.31 494.839L555.035 414.28C567.214 404.497 574.501 389.922 575 374.349C575.499 358.776 569.01 343.602 557.331 333.021L557.331 333.021Z" id="Shape" fill="#FFFFFF" stroke="#FFFFFF" stroke-width="1" />
      </g>
    </g>
    <g id="city" transform="translate(170.75305 0)">
      <path d="M77.8271 216.973L54.2432 216.973C50.34 216.973 47.168 220.139 47.168 224.048L47.168 247.632C47.168 251.541 50.34 254.707 54.2432 254.707L77.8271 254.707C81.7303 254.707 84.9023 251.541 84.9023 247.632L84.9023 224.048C84.9023 220.139 81.7303 216.973 77.8271 216.973L77.8271 216.973ZM77.8271 160.371L54.2432 160.371C50.34 160.371 47.168 163.537 47.168 167.446L47.168 191.03C47.168 194.939 50.34 198.105 54.2432 198.105L77.8271 198.105C81.7303 198.105 84.9023 194.939 84.9023 191.03L84.9023 167.446C84.9023 163.537 81.7303 160.371 77.8271 160.371L77.8271 160.371ZM77.8271 103.77L54.2432 103.77C50.34 103.77 47.168 106.936 47.168 110.845L47.168 134.429C47.168 138.338 50.34 141.504 54.2432 141.504L77.8271 141.504C81.7303 141.504 84.9023 138.338 84.9023 134.429L84.9023 110.845C84.9023 106.936 81.7303 103.77 77.8271 103.77L77.8271 103.77ZM134.429 216.973L110.845 216.973C106.942 216.973 103.77 220.139 103.77 224.048L103.77 247.632C103.77 251.541 106.942 254.707 110.845 254.707L134.429 254.707C138.332 254.707 141.504 251.541 141.504 247.632L141.504 224.048C141.504 220.139 138.332 216.973 134.429 216.973L134.429 216.973ZM134.429 160.371L110.845 160.371C106.942 160.371 103.77 163.537 103.77 167.446L103.77 191.03C103.77 194.939 106.942 198.105 110.845 198.105L134.429 198.105C138.332 198.105 141.504 194.939 141.504 191.03L141.504 167.446C141.504 163.537 138.332 160.371 134.429 160.371L134.429 160.371ZM134.429 103.77L110.845 103.77C106.942 103.77 103.77 106.936 103.77 110.845L103.77 134.429C103.77 138.338 106.942 141.504 110.845 141.504L134.429 141.504C138.332 141.504 141.504 138.338 141.504 134.429L141.504 110.845C141.504 106.936 138.332 103.77 134.429 103.77L134.429 103.77ZM247.632 160.371L224.048 160.371C220.145 160.371 216.973 163.537 216.973 167.446L216.973 191.03C216.973 194.939 220.145 198.105 224.048 198.105L247.632 198.105C251.535 198.105 254.707 194.939 254.707 191.03L254.707 167.446C254.707 163.537 251.535 160.371 247.632 160.371L247.632 160.371ZM247.632 103.77L224.048 103.77C220.145 103.77 216.973 106.936 216.973 110.845L216.973 134.429C216.973 138.338 220.145 141.504 224.048 141.504L247.632 141.504C251.535 141.504 254.707 138.338 254.707 134.429L254.707 110.845C254.707 106.936 251.535 103.77 247.632 103.77L247.632 103.77ZM247.632 47.168L224.048 47.168C220.145 47.168 216.973 50.3341 216.973 54.2432L216.973 77.8271C216.973 81.7362 220.145 84.9023 224.048 84.9023L247.632 84.9023C251.535 84.9023 254.707 81.7362 254.707 77.8271L254.707 54.2432C254.707 50.3341 251.535 47.168 247.632 47.168L247.632 47.168ZM323.1 216.973L299.516 216.973C295.613 216.973 292.441 220.139 292.441 224.048L292.441 247.632C292.441 251.541 295.613 254.707 299.516 254.707L323.1 254.707C327.004 254.707 330.176 251.541 330.176 247.632L330.176 224.048C330.176 220.139 327.004 216.973 323.1 216.973L323.1 216.973ZM323.1 160.371L299.516 160.371C295.613 160.371 292.441 163.537 292.441 167.446L292.441 191.03C292.441 194.939 295.613 198.105 299.516 198.105L323.1 198.105C327.004 198.105 330.176 194.939 330.176 191.03L330.176 167.446C330.176 163.537 327.004 160.371 323.1 160.371L323.1 160.371ZM363.193 113.203L301.875 113.203L301.875 14.1504C301.875 6.3323 295.537 0 287.725 0L183.955 0C176.143 0 169.805 6.3323 169.805 14.1504L169.805 56.6016L132.07 56.6016L132.07 4.7168C132.07 2.11077 129.96 0 127.354 0L117.92 0C115.314 0 113.203 2.11077 113.203 4.7168L113.203 56.6016L75.4687 56.6016L75.4687 4.7168C75.4687 2.11077 73.358 0 70.7519 0L61.3184 0C58.7123 0 56.6016 2.11077 56.6016 4.7168L56.6016 56.6016L14.1504 56.6016C6.3382 56.6016 0 62.9339 0 70.752L0 297.158C0 299.764 2.11077 301.875 4.7168 301.875L14.1504 301.875C16.7564 301.875 18.8672 299.764 18.8672 297.158L18.8672 75.4688L188.672 75.4688L188.672 18.8672L283.008 18.8672L283.008 132.07L358.477 132.07L358.477 297.158C358.477 299.764 360.587 301.875 363.193 301.875L372.627 301.875C375.233 301.875 377.344 299.764 377.344 297.158L377.344 127.354C377.344 119.535 371.006 113.203 363.193 113.203L363.193 113.203Z" id="Shape" fill="#FFFFFF" fill-rule="evenodd" stroke="none" />
    </g>
  </g>
</svg>