<?xml version="1.0" encoding="utf-8"?>
<svg width="575px" height="575px" viewBox="0 0 575 575" version="1.1" xmlns:xlink="http://www.w3.org/1999/xlink" xmlns="http://www.w3.org/2000/svg">
  <defs>
    <path d="M0 0L575 0L575 575L0 575L0 0Z" id="path_1" />
    <clipPath id="mask_1">
      <use xlink:href="#path_1" />
    </clipPath>
  </defs>
  <g id="Group-2" transform="translate(0 -0.08325195)">
    <g id="layer-group">
      <path d="M0 0L575 0L575 575L0 575L0 0Z" id="Background" fill="none" fill-rule="evenodd" stroke="none" />
      <g clip-path="url(#mask_1)">
        <path d="M575 287.511C575 276.303 568.475 266.241 558.413 261.894L446.4 213.3L558.368 164.717C568.475 160.349 575 150.297 575 139.101C575 127.904 568.475 117.853 558.413 113.506L305.401 3.73971C294.059 -1.24662 281.02 -1.25785 269.61 3.71725L16.6323 113.495C6.5249 117.864 1.07102e-06 127.915 1.07102e-06 139.112C1.07102e-06 150.309 6.5249 160.36 16.5874 164.706L128.589 213.311L16.6211 261.894C6.5249 266.252 1.07102e-06 276.303 1.07102e-06 287.511C1.07102e-06 298.708 6.5249 308.759 16.5874 313.105L128.578 361.688L16.6211 410.26C6.5249 414.64 1.07102e-06 424.691 1.07102e-06 435.899C1.07102e-06 447.096 6.5249 457.147 16.5874 461.494L269.632 571.283C275.268 573.728 281.345 574.993 287.489 575C293.576 575 299.663 573.765 305.345 571.283L558.356 461.516C568.464 457.147 574.989 447.096 574.989 435.899C574.989 424.691 568.464 414.629 558.401 410.283L446.411 361.7L558.368 313.128C568.475 308.759 575 298.708 575 287.511L575 287.511ZM50.7954 139.112L284.423 37.7456L284.457 37.7231C286.411 36.9257 288.556 36.8696 290.577 37.7456L524.205 139.112L290.577 240.489C288.544 241.354 286.377 241.354 284.423 240.489L50.7954 139.112L50.7954 139.112ZM524.205 435.899L290.577 537.266C288.544 538.13 286.377 538.13 284.423 537.266L50.7954 435.888L175.184 381.914L269.644 422.894C275.279 425.34 281.356 426.605 287.5 426.612C293.587 426.612 299.674 425.376 305.356 422.894L399.816 381.914L524.205 435.899L524.205 435.899ZM290.577 388.877C288.544 389.742 286.377 389.742 284.423 388.877L50.7954 287.5L175.195 233.526L269.644 274.518C275.279 276.963 281.356 278.228 287.5 278.235C293.587 278.235 299.674 276.999 305.356 274.518L399.805 233.538L524.205 287.522L290.577 388.877L290.577 388.877Z" id="Shape" fill="#FFFFFF" fill-rule="evenodd" stroke="none" />
      </g>
    </g>
  </g>
</svg>