<?xml version="1.0" encoding="utf-8"?>
<svg width="478px" height="575px" viewBox="0 0 478 575" version="1.1" xmlns:xlink="http://www.w3.org/1999/xlink" xmlns="http://www.w3.org/2000/svg">
  <defs>
    <path d="M0 0L477.667 0L477.667 424.593L0 424.593L0 0Z" id="path_1" />
    <path d="M0 0L340.758 0L340.758 351.75L0 351.75L0 0Z" id="path_2" />
    <clipPath id="mask_1">
      <use xlink:href="#path_1" />
    </clipPath>
    <clipPath id="mask_2">
      <use xlink:href="#path_2" />
    </clipPath>
  </defs>
  <g id="Group-6" transform="translate(0 -135)">
    <g id="shopping-cart" transform="translate(0 285.4071)">
      <path d="M0 0L477.667 0L477.667 424.593L0 424.593L0 0Z" id="Background" fill="none" fill-rule="evenodd" stroke="none" />
      <g clip-path="url(#mask_1)">
        <path d="M457.757 53.0741L107.21 53.0741L100.303 16.2349C98.5371 6.82168 90.318 0 80.7407 0L9.9514 0C4.45574 0 0 4.45574 0 9.9514L0 16.5857C0 22.0813 4.45574 26.5371 9.9514 26.5371L75.2326 26.5371L133.222 335.815C124.645 345.242 119.417 357.769 119.417 371.519C119.417 400.831 143.179 424.593 172.491 424.593C201.803 424.593 225.565 400.831 225.565 371.519C225.575 362.199 223.119 353.044 218.447 344.981L338.832 344.982C334.159 353.044 331.704 362.2 331.714 371.519C331.714 400.831 355.476 424.593 384.788 424.593C414.1 424.593 437.862 400.831 437.862 371.519C437.862 356.597 431.697 343.124 421.784 333.481C419.635 324.989 411.955 318.445 402.474 318.445L156.967 318.445L147.015 265.371L421.824 265.371C431.251 265.371 439.386 258.756 441.309 249.527L477.242 77.0362C479.817 64.6766 470.382 53.0741 457.757 53.0741L457.757 53.0741ZM199.028 371.519C199.028 386.151 187.124 398.056 172.491 398.056C157.858 398.056 145.954 386.151 145.954 371.519C145.954 356.886 157.858 344.982 172.491 344.982C187.124 344.982 199.028 356.886 199.028 371.519L199.028 371.519ZM384.787 398.056C370.155 398.056 358.25 386.151 358.25 371.519C358.25 356.886 370.155 344.982 384.787 344.982C399.42 344.982 411.324 356.886 411.324 371.519C411.324 386.151 399.42 398.056 384.787 398.056L384.787 398.056ZM418.088 238.833L143.698 238.833L113.844 79.6112L451.259 79.6112L418.088 238.833L418.088 238.833Z" id="Shape" fill="#FFFFFF" fill-rule="evenodd" stroke="none" />
      </g>
    </g>
    <g id="globe" transform="translate(117.50427 0)">
      <path d="M0 0L340.758 0L340.758 351.75L0 351.75L0 0Z" id="Background" fill="none" fill-rule="evenodd" stroke="none" />
      <g clip-path="url(#mask_2)">
        <path d="M170.296 135.385C76.1753 135.385 -0.0829468 211.643 -0.0829468 305.763C-0.0829468 399.884 76.1753 476.142 170.296 476.142C264.416 476.142 340.675 399.884 340.675 305.763C340.675 211.643 264.416 135.385 170.296 135.385L170.296 135.385ZM303.026 239.81L246.348 239.81C240.165 209.307 229.791 183.338 216.669 164.857C254.455 177.361 285.508 204.635 303.026 239.81L303.026 239.81ZM230.753 305.763C230.753 321.496 229.654 336.129 227.799 349.732L112.793 349.732C110.938 336.129 109.839 321.496 109.839 305.763C109.839 290.031 110.938 275.398 112.793 261.795L227.799 261.795C229.654 275.398 230.753 290.031 230.753 305.763L230.753 305.763ZM170.296 157.369C188.777 157.369 212.478 187.666 223.952 239.81L116.64 239.81C128.113 187.666 151.815 157.369 170.296 157.369L170.296 157.369ZM123.923 164.857C110.869 183.269 100.427 209.238 94.2437 239.81L37.5653 239.81C55.0841 204.635 86.137 177.361 123.923 164.857L123.923 164.857ZM21.9015 305.763C21.9015 290.443 24.2373 275.672 28.5655 261.795L90.74 261.795C88.9538 275.878 87.8546 290.512 87.8546 305.763C87.8546 321.015 88.8851 335.648 90.74 349.732L28.5655 349.732C24.2373 335.854 21.9015 321.084 21.9015 305.763L21.9015 305.763ZM37.5653 371.716L94.2437 371.716C100.427 402.22 110.801 428.189 123.923 446.669C86.137 434.166 55.0841 406.891 37.5653 371.716L37.5653 371.716ZM170.296 454.158C151.815 454.158 128.113 423.861 116.64 371.716L223.951 371.716C212.478 423.861 188.776 454.158 170.296 454.158L170.296 454.158ZM216.669 446.669C229.722 428.258 240.165 402.288 246.348 371.716L303.026 371.716C285.508 406.891 254.455 434.166 216.669 446.669L216.669 446.669ZM249.852 349.732C251.638 335.648 252.737 321.015 252.737 305.763C252.737 290.512 251.707 275.878 249.852 261.795L312.026 261.795C316.354 275.672 318.69 290.443 318.69 305.763C318.69 321.084 316.355 335.854 312.026 349.732L249.852 349.732L249.852 349.732Z" id="Shape" fill="#FFFFFF" fill-rule="evenodd" stroke="none" />
      </g>
    </g>
  </g>
</svg>