<?xml version="1.0" encoding="utf-8"?>
<svg width="149px" height="42px" viewBox="0 0 149 42" version="1.1" xmlns:xlink="http://www.w3.org/1999/xlink" xmlns="http://www.w3.org/2000/svg">
  <defs>
    <path d="M0 0L48 0L48 42L0 42L0 0Z" id="path_1" />
    <clipPath id="mask_1">
      <use xlink:href="#path_1" />
    </clipPath>
  </defs>
  <g id="Group-34">
    <g id="RenderpubStitchLogo">
      <path d="M0 0L48 0L48 42L0 42L0 0Z" id="Background" fill="none" fill-rule="evenodd" stroke="none" />
      <g clip-path="url(#mask_1)">
        <g id="layer1" transform="translate(0.00012207031 -0.00012207031)">
          <path d="M0 0L0 3.77953C1.41156 2.51987 2.82282 1.25966 4.23438 0L0 0ZM7.05859 0C4.7057 1.66663 2.35289 3.33337 0 5L0 7C3.29422 4.66659 6.58859 2.33341 9.88281 0L7.05859 0ZM12.7051 0C8.46996 2.99987 4.23512 6.00013 0 9L0 10L0 11C5.17645 7.33335 10.3529 3.66665 15.5293 0L12.7051 0ZM18.3535 0C12.2357 4.33343 6.11778 8.66658 0 13L0 15C7.05868 10.0001 14.1171 4.99989 21.1758 0L18.3535 0ZM24 0C16 5.66667 8.00001 11.3333 0 17L0 19C3.33344 16.6388 6.66656 14.2772 10 11.916L10 10L12.7051 10C17.4113 6.66643 22.118 3.33357 26.8242 0L24 0ZM29.6465 0C24.9407 3.33326 20.2351 6.66674 15.5293 10L18.3535 10C23.0593 6.66674 27.7649 3.33326 32.4707 0L29.6465 0ZM35.2949 0C30.5887 3.33357 25.882 6.66643 21.1758 10L38 10L38 23L35.2891 23L24 15L12.7109 23L10 23L10 17.916C6.66656 20.2772 3.33344 22.6388 0 25L0 32L0 42L24 25L48 42L48 32L45.3652 30.1309C47.0433 28.3873 48 25.933 48 23C47.9995 18.475 47.9984 14.525 48 10C48 4 44 0 38 0L35.2949 0ZM10 13.916C6.66656 16.2772 3.33344 18.6388 0 21L0 23C3.33344 20.6388 6.66656 18.2772 10 15.916L10 13.916Z" id="Vector-Union-2" fill="#E5E5E5" fill-rule="evenodd" stroke="none" />
        </g>
      </g>
    </g>
    <g id="Group-15" transform="translate(52 0)">
      <g id="Group-7">
        <g id="Group-6">
          <g id="Group-2">
            <path d="M91.9451 9.09142C92.1111 9.09142 92.2831 9.0775 92.4604 9.04964C92.6384 9.02179 92.7991 8.97443 92.9431 8.90759C93.0877 8.84073 93.2037 8.74881 93.2931 8.63182C93.3817 8.51483 93.4257 8.37277 93.4257 8.20564C93.4257 7.7154 93.3037 7.39229 93.0597 7.2363C92.8157 7.08031 92.4551 7.00232 91.9777 7.00232L89.3984 7.00232L89.3984 9.09142L91.9451 9.09142L91.9451 9.09142ZM93.0584 3.67681C93.0584 3.49854 93.0137 3.34254 92.9251 3.20881C92.8364 3.07515 92.7204 2.96928 92.5757 2.89128C92.4317 2.81329 92.2711 2.75482 92.0931 2.71582C91.9157 2.67682 91.7384 2.65729 91.5611 2.65729L89.3984 2.65729L89.3984 4.69626L91.5444 4.69626C91.7438 4.69626 91.9324 4.68232 92.1097 4.65452C92.2877 4.62666 92.4484 4.57653 92.5924 4.50406C92.7364 4.43166 92.8504 4.3286 92.9337 4.19486C93.0164 4.0612 93.0584 3.88847 93.0584 3.67681L93.0584 3.67681L93.0584 3.67681ZM95.5154 3.72727C95.5154 4.18413 95.4487 4.58799 95.3148 4.93899C95.1814 5.28992 94.9581 5.59358 94.6461 5.84984C94.8021 5.97237 94.9614 6.10888 95.1227 6.25929C95.2841 6.40971 95.4287 6.57683 95.5574 6.76067C95.6854 6.94452 95.7914 7.15343 95.8747 7.3874C95.9581 7.62139 96.0001 7.87765 96.0001 8.1562C96.0001 8.82471 95.8967 9.37902 95.6907 9.81913C95.4847 10.2592 95.2007 10.6102 94.8388 10.872C94.4761 11.1339 94.0448 11.3149 93.5434 11.4152C93.0421 11.5155 92.4901 11.5656 91.8888 11.5656L86.8582 11.5656L86.9082 0.21759L91.3208 0.21759C91.8888 0.21759 92.4261 0.278856 92.9334 0.401455C93.4401 0.523986 93.8861 0.724583 94.2701 1.00311C94.6548 1.28164 94.9581 1.64377 95.1814 2.08943C95.4041 2.53509 95.5154 3.08108 95.5154 3.72727L95.5154 3.72727L95.5154 3.72727ZM84.6692 0.21759C84.6912 1.13124 84.7078 2.13676 84.7192 3.23428C84.7305 4.33173 84.7358 5.42645 84.7358 6.51834C84.7358 6.6409 84.7358 6.76067 84.7358 6.87767C84.7358 6.99466 84.7245 7.09772 84.7025 7.18685L84.7025 7.17014C84.5912 8.55173 84.1118 9.62971 83.2652 10.4041C82.4185 11.1784 81.2985 11.5656 79.9059 11.5656C79.2486 11.5656 78.6439 11.457 78.0926 11.2397C77.5412 11.0225 77.0532 10.7188 76.6299 10.3289C76.2066 9.9389 75.8639 9.47373 75.6026 8.93335C75.3406 8.39296 75.1759 7.80523 75.1093 7.17014C75.0873 7.04758 75.0759 6.91109 75.0759 6.76067C75.0759 6.61026 75.0759 6.46263 75.0759 6.31778L75.1093 0.21759L77.6499 0.21759L77.6499 7.03644C77.6499 7.32613 77.7132 7.59075 77.8412 7.8303C77.9686 8.06985 78.1412 8.27597 78.3572 8.44867C78.5739 8.62137 78.8152 8.75508 79.0819 8.84978C79.3479 8.94449 79.6259 8.99184 79.9145 8.99184C80.1919 8.99184 80.4612 8.94449 80.7219 8.84978C80.9825 8.75508 81.2185 8.62137 81.4292 8.44867C81.6399 8.27597 81.8092 8.06985 81.9372 7.8303C82.0645 7.59075 82.1285 7.32613 82.1285 7.03644L82.1285 0.21759L84.6692 0.21759L84.6692 0.21759ZM67.3359 6.0507L69.6152 6.0507C69.8146 6.0507 69.9972 5.99826 70.1639 5.89347C70.3299 5.78867 70.4712 5.65353 70.5879 5.48807C70.7046 5.32261 70.7932 5.13508 70.8539 4.92561C70.9152 4.71608 70.9459 4.50648 70.9459 4.29689C70.9459 4.09822 70.9152 3.90516 70.8539 3.7177C70.7932 3.53017 70.7046 3.36477 70.5879 3.22137C70.4712 3.07804 70.3299 2.96224 70.1639 2.87398C69.9972 2.78571 69.8146 2.74158 69.6152 2.74158L67.3359 2.74158L67.3359 6.0507L67.3359 6.0507ZM69.6173 0.21759C70.1866 0.21759 70.7086 0.323456 71.1833 0.535118C71.6573 0.746849 72.0646 1.03931 72.4053 1.41257C72.7459 1.78583 73.0113 2.22589 73.2006 2.73289C73.3906 3.23981 73.4853 3.783 73.4853 4.3624C73.4853 4.98632 73.3993 5.55738 73.2266 6.07545C73.0539 6.59354 72.8059 7.03644 72.4826 7.40412C72.1593 7.7718 71.7559 8.05871 71.2713 8.26483C70.7866 8.47095 70.2373 8.57402 69.6246 8.57402L67.3353 8.57402L67.3353 11.5656L64.7947 11.5656L64.7947 0.21759L69.6173 0.21759L69.6173 0.21759ZM57.0918 5.78326L58.6798 5.78326C59.1031 5.78326 59.4344 5.63287 59.6738 5.33207C59.9131 5.03121 60.0331 4.66908 60.0331 4.24569C60.0331 3.84463 59.9131 3.49363 59.6738 3.19277C59.4344 2.89197 59.1031 2.74158 58.6798 2.74158L57.0918 2.74158L57.0918 5.78326L57.0918 5.78326ZM58.6778 0.21759C59.2458 0.21759 59.7751 0.315056 60.2651 0.510053C60.7558 0.705049 61.1844 0.980845 61.5524 1.33737C61.9198 1.6939 62.2064 2.1173 62.4131 2.60755C62.6191 3.09775 62.7218 3.63814 62.7218 4.22866C62.7218 5.18685 62.4991 6.01138 62.0538 6.70218C61.6078 7.39298 60.9784 7.85536 60.1651 8.08935L63.0898 11.5656L60.0145 11.5656L57.0898 8.1562L57.0898 11.5656L54.5825 11.5656L54.5825 0.21759L58.6778 0.21759L58.6778 0.21759ZM46.661 9.04198L52.1763 9.04198L52.1763 11.5656L44.121 11.5656L44.121 0.21759L52.1763 0.21759L52.1763 2.74122L46.661 2.74122L46.6783 4.88046L52.0763 4.88046L52.0596 7.27042L46.661 7.27042L46.661 9.04198L46.661 9.04198ZM39.7116 5.98351C39.7116 5.57125 39.653 5.17572 39.536 4.79692C39.419 4.41806 39.2492 4.07827 39.0263 3.77741C38.8035 3.47661 38.5333 3.23428 38.2157 3.05042C37.8982 2.86655 37.5333 2.76349 37.1211 2.74122C37.0653 2.74122 37.0013 2.73842 36.9289 2.73289C36.8565 2.72729 36.7478 2.72449 36.6029 2.72449C36.4581 2.72449 36.2575 2.72449 36.0013 2.72449C35.745 2.72449 35.3996 2.72449 34.9651 2.72449L34.9651 9.05868L37.1545 9.05868C37.2436 9.05868 37.3383 9.04754 37.4386 9.02525C37.5389 9.00296 37.6336 8.98068 37.7227 8.9584C38.057 8.85812 38.3466 8.71049 38.5918 8.51551C38.8369 8.32053 39.043 8.08933 39.2102 7.82193C39.3773 7.55452 39.5026 7.26204 39.5862 6.9445C39.6698 6.62696 39.7116 6.30663 39.7116 5.98351L39.7116 5.98351L39.7116 5.98351ZM42.2513 6.03367C42.2513 6.90273 42.1151 7.68267 41.8425 8.37346C41.5699 9.06426 41.1862 9.64643 40.6913 10.12C40.1963 10.5935 39.5985 10.9556 38.8978 11.2063C38.197 11.457 37.424 11.5823 36.5786 11.5823L32.4742 11.5656L32.4742 0.21759L36.5786 0.21759C37.424 0.21759 38.1942 0.359655 38.8894 0.643784C39.5846 0.927913 40.1824 1.32624 40.6829 1.83877C41.1834 2.35129 41.5699 2.96408 41.8425 3.67714C42.1151 4.39026 42.2513 5.17572 42.2513 6.03367L42.2513 6.03367L42.2513 6.03367ZM27.5595 0.217263L30.0665 0.217263L30.0665 11.9998L23.1808 5.71578L23.1808 11.5653L20.6738 11.5653L20.6738 0L27.5595 6.13359L27.5595 0.217263L27.5595 0.217263ZM12.753 9.04198L18.2683 9.04198L18.2683 11.5656L10.2126 11.5656L10.2126 0.21759L18.2683 0.21759L18.2683 2.74122L12.753 2.74122L12.7697 4.88046L18.168 4.88046L18.1513 7.27042L12.753 7.27042L12.753 9.04198L12.753 9.04198ZM2.50842 5.78326L4.09614 5.78326C4.51953 5.78326 4.851 5.63287 5.09053 5.33207C5.33006 5.03121 5.44986 4.66908 5.44986 4.24569C5.44986 3.84463 5.33006 3.49363 5.09053 3.19277C4.851 2.89197 4.51953 2.74158 4.09614 2.74158L2.50842 2.74158L2.50842 5.78326L2.50842 5.78326ZM4.09469 0.21759C4.66288 0.21759 5.19214 0.315056 5.6824 0.510053C6.17266 0.705049 6.60159 0.980845 6.96925 1.33737C7.33698 1.6939 7.62385 2.1173 7.82998 2.60755C8.03611 3.09775 8.13917 3.63814 8.13917 4.22866C8.13917 5.18685 7.91638 6.01138 7.47065 6.70218C7.02499 7.39298 6.39546 7.85536 5.58214 8.08935L8.5069 11.5656L5.43167 11.5656L2.50691 8.1562L2.50691 11.5656L0 11.5656L0 0.21759L4.09469 0.21759L4.09469 0.21759Z" id="RENDERPUB-3" fill="#E5E5E5" fill-rule="evenodd" stroke="none" />
          </g>
        </g>
      </g>
      <path d="M59.7599 24.4161C61.0685 23.0448 62.6683 22.3592 64.5595 22.3592C66.0653 22.3592 67.217 22.7939 68.0147 23.6633C68.8124 24.5326 69.2112 25.7964 69.2112 27.4545L69.2112 36.758L66.6165 36.758L66.6165 27.6428C66.6165 26.5941 66.4014 25.8323 65.9712 25.3572C65.5409 24.8822 64.8508 24.6447 63.9007 24.6447C63.0582 24.6447 62.2695 24.8329 61.5345 25.2093C60.7996 25.5858 60.208 26.1056 59.7599 26.7689L59.7599 36.758L57.1786 36.758L57.1786 16L59.7599 16L59.7599 24.4161ZM49.9188 22.3591C51.3976 22.3591 52.8182 22.7535 54.1806 23.5422L53.2798 25.6127C52.1236 24.9673 51.0033 24.6447 49.9188 24.6447C48.6012 24.6447 47.5839 25.0794 46.8669 25.9488C46.1499 26.8182 45.7914 28.055 45.7914 29.6594C45.7914 31.2727 46.1588 32.5051 46.8938 33.3566C47.6287 34.208 48.6908 34.6338 50.0801 34.6338C50.591 34.6338 51.1646 34.5554 51.801 34.3985C52.4373 34.2417 53.0468 34.0378 53.6294 33.7868L54.3285 35.8438C53.6294 36.1754 52.8765 36.4376 52.0698 36.6303C51.2632 36.823 50.5013 36.9193 49.7843 36.9193C47.6691 36.9193 46.0333 36.2874 44.8771 35.0237C43.7209 33.7599 43.1428 31.9718 43.1428 29.6594C43.1428 27.3649 43.7389 25.5746 44.9309 24.2884C46.123 23.0022 47.7856 22.3591 49.9188 22.3591L49.9188 22.3591ZM41.3278 36.2875C40.2612 36.7087 39.2708 36.9194 38.3566 36.9194C36.9942 36.9194 35.9568 36.5676 35.2442 35.864C34.5317 35.1604 34.1754 34.1274 34.1754 32.7651L34.1754 24.8329L31.7017 24.8329L31.7017 22.6012L34.3099 22.6012L34.8611 18.5544L36.7702 18.5544L36.7702 22.6012L41.0858 22.6012L41.0858 24.8329L36.7702 24.8329L36.7702 32.3483C36.7702 33.155 36.9293 33.7331 37.2474 34.0826C37.5656 34.4322 38.0922 34.6069 38.8271 34.6069C39.4725 34.6069 40.1447 34.4904 40.8438 34.2574L41.3278 36.2875ZM26.4718 17.3713L29.0531 17.3713L29.0531 20.0199L26.4718 20.0199L26.4718 17.3713ZM26.4718 22.6012L29.0531 22.6012L29.0531 36.758L26.4718 36.758L26.4718 22.6012ZM23.5813 36.2875C22.5147 36.7087 21.5243 36.9194 20.6101 36.9194C19.2478 36.9194 18.2103 36.5676 17.4978 35.864C16.7852 35.1604 16.429 34.1274 16.429 32.7651L16.429 24.8329L13.9552 24.8329L13.9552 22.6012L16.5634 22.6012L17.1146 18.5544L19.0237 18.5544L19.0237 22.6012L23.3393 22.6012L23.3393 24.8329L19.0237 24.8329L19.0237 32.3483C19.0237 33.155 19.1828 33.7331 19.501 34.0826C19.8192 34.4322 20.3457 34.6069 21.0807 34.6069C21.726 34.6069 22.3982 34.4904 23.0973 34.2574L23.5813 36.2875ZM7.04481 17.0486C8.60435 17.0397 10.2177 17.3847 11.8848 18.0838L11.226 20.5173C9.5589 19.8719 8.14725 19.5493 6.99104 19.5493C5.8169 19.5493 4.88476 19.7778 4.19462 20.2349C3.50448 20.692 3.15941 21.3284 3.15941 22.144C3.15941 22.7356 3.28265 23.2263 3.52913 23.6162C3.77561 24.0061 4.19462 24.3579 4.78617 24.6716C5.37772 24.9853 6.2023 25.299 7.25992 25.6127C9.15109 26.1594 10.4955 26.8787 11.2932 27.7705C12.0909 28.6623 12.4898 29.87 12.4898 31.3937C12.4898 33.1415 11.9027 34.5128 10.7286 35.5077C9.55442 36.5025 7.9411 37 5.8886 37C4.12292 37 2.16005 36.5429 0 35.6287L0.793214 33.2356C2.0032 33.7106 2.96671 34.04 3.68374 34.2237C4.40077 34.4075 5.13572 34.4993 5.8886 34.4993C7.08067 34.4993 8.02177 34.2237 8.71191 33.6725C9.40205 33.1213 9.74712 32.3707 9.74712 31.4206C9.74712 30.8111 9.61716 30.3047 9.35723 29.9014C9.09731 29.4981 8.65141 29.1351 8.01953 28.8124C7.38764 28.4897 6.4936 28.1716 5.33739 27.8579C3.5717 27.3828 2.30794 26.7285 1.54609 25.895C0.784251 25.0614 0.403329 23.9366 0.403329 22.5205C0.403329 20.7906 0.992637 19.4462 2.17125 18.4872C3.34987 17.5281 4.97439 17.0486 7.04481 17.0486L7.04481 17.0486Z" id="Stitch" fill="#E5E5E5" stroke="none" />
    </g>
  </g>
</svg>