<?xml version="1.0" encoding="utf-8"?>
<svg width="148px" height="42px" viewBox="0 0 148 42" version="1.1" xmlns:xlink="http://www.w3.org/1999/xlink" xmlns="http://www.w3.org/2000/svg">
  <defs>
    <path d="M0 0L48 0L48 42L0 42L0 0Z" id="path_1" />
    <clipPath id="mask_1">
      <use xlink:href="#path_1" />
    </clipPath>
  </defs>
  <g id="Group-32">
    <g id="RenderpubMainLogo">
      <path d="M0 0L48 0L48 42L0 42L0 0Z" id="Background" fill="none" fill-rule="evenodd" stroke="none" />
      <g clip-path="url(#mask_1)">
        <g id="layer1">
          <path d="M0 0L38 0C44 0 48 4 48 10C47.9984 14.525 47.9995 18.475 48 23C48 25.933 47.0442 28.388 45.3662 30.1316L48 32L48 42L24 25L2.88355e-05 42L2.88355e-05 32L2.88355e-05 10L0 0ZM10 22.9996L12.71 23.0001L24 15.0001L35.29 23.0001L38 23.0001L38 10.0001L10 10.0001L10 22.9996Z" id="Vector-Union-2" fill="#E5E5E5" fill-rule="evenodd" stroke="none" />
        </g>
      </g>
    </g>
    <g id="Group-19" transform="translate(51.999878 0)">
      <g id="Group-9">
        <g id="Group-5">
          <path d="M91.9451 9.09142C92.1111 9.09142 92.2831 9.07749 92.4604 9.04964C92.6384 9.02179 92.7991 8.97443 92.9431 8.90758C93.0877 8.84073 93.2037 8.74881 93.2931 8.63182C93.3817 8.51483 93.4257 8.37277 93.4257 8.20564C93.4257 7.7154 93.3037 7.39229 93.0597 7.2363C92.8157 7.08031 92.4551 7.00232 91.9777 7.00232L89.3984 7.00232L89.3984 9.09142L91.9451 9.09142L91.9451 9.09142ZM93.0584 3.6768C93.0584 3.49854 93.0137 3.34254 92.9251 3.20881C92.8364 3.07515 92.7204 2.96928 92.5757 2.89128C92.4317 2.81329 92.2711 2.75482 92.0931 2.71582C91.9157 2.67682 91.7384 2.65729 91.5611 2.65729L89.3984 2.65729L89.3984 4.69626L91.5444 4.69626C91.7438 4.69626 91.9324 4.68232 92.1097 4.65452C92.2877 4.62666 92.4484 4.57652 92.5924 4.50406C92.7364 4.43166 92.8504 4.32859 92.9337 4.19486C93.0164 4.0612 93.0584 3.88847 93.0584 3.6768L93.0584 3.6768L93.0584 3.6768ZM95.5154 3.72727C95.5154 4.18413 95.4487 4.58799 95.3148 4.93898C95.1814 5.28991 94.9581 5.59357 94.6461 5.84984C94.8021 5.97237 94.9614 6.10887 95.1227 6.25928C95.2841 6.4097 95.4287 6.57683 95.5574 6.76067C95.6854 6.94451 95.7914 7.15342 95.8747 7.3874C95.9581 7.62138 96.0001 7.87765 96.0001 8.15619C96.0001 8.8247 95.8967 9.37901 95.6907 9.81912C95.4847 10.2592 95.2007 10.6102 94.8388 10.872C94.4761 11.1339 94.0448 11.3149 93.5434 11.4152C93.0421 11.5155 92.4901 11.5656 91.8888 11.5656L86.8582 11.5656L86.9082 0.21759L91.3208 0.21759C91.8888 0.21759 92.4261 0.278856 92.9334 0.401455C93.4401 0.523986 93.8861 0.724582 94.2701 1.00311C94.6548 1.28164 94.9581 1.64377 95.1814 2.08943C95.4041 2.53509 95.5154 3.08108 95.5154 3.72727L95.5154 3.72727L95.5154 3.72727ZM84.6692 0.21759C84.6912 1.13124 84.7078 2.13676 84.7192 3.23428C84.7305 4.33173 84.7358 5.42644 84.7358 6.51833C84.7358 6.6409 84.7358 6.76067 84.7358 6.87766C84.7358 6.99465 84.7245 7.09771 84.7025 7.18685L84.7025 7.17014C84.5912 8.55173 84.1118 9.6297 83.2652 10.4041C82.4185 11.1784 81.2985 11.5656 79.9059 11.5656C79.2486 11.5656 78.6439 11.457 78.0926 11.2397C77.5412 11.0224 77.0532 10.7188 76.6299 10.3289C76.2066 9.93889 75.8639 9.47372 75.6026 8.93334C75.3406 8.39296 75.1759 7.80522 75.1093 7.17014C75.0873 7.04757 75.0759 6.91109 75.0759 6.76067C75.0759 6.61025 75.0759 6.46263 75.0759 6.31778L75.1093 0.21759L77.6499 0.21759L77.6499 7.03643C77.6499 7.32612 77.7132 7.59074 77.8412 7.83029C77.9686 8.06984 78.1412 8.27596 78.3572 8.44866C78.5739 8.62137 78.8152 8.75507 79.0819 8.84978C79.3479 8.94448 79.6259 8.99183 79.9145 8.99183C80.1919 8.99183 80.4612 8.94448 80.7219 8.84978C80.9825 8.75507 81.2185 8.62137 81.4292 8.44866C81.6399 8.27596 81.8092 8.06984 81.9372 7.83029C82.0645 7.59074 82.1285 7.32612 82.1285 7.03643L82.1285 0.21759L84.6692 0.21759L84.6692 0.21759ZM67.3359 6.05069L69.6152 6.05069C69.8146 6.05069 69.9972 5.99826 70.1639 5.89346C70.3299 5.78866 70.4712 5.65353 70.5879 5.48807C70.7046 5.3226 70.7932 5.13507 70.8539 4.92561C70.9152 4.71608 70.9459 4.50648 70.9459 4.29689C70.9459 4.09822 70.9152 3.90516 70.8539 3.71769C70.7932 3.53016 70.7046 3.36477 70.5879 3.22137C70.4712 3.07804 70.3299 2.96224 70.1639 2.87398C69.9972 2.78571 69.8146 2.74158 69.6152 2.74158L67.3359 2.74158L67.3359 6.05069L67.3359 6.05069ZM69.6172 0.21759C70.1865 0.21759 70.7085 0.323455 71.1832 0.535118C71.6572 0.746848 72.0645 1.03931 72.4052 1.41257C72.7458 1.78583 73.0111 2.22589 73.2005 2.73288C73.3905 3.23981 73.4851 3.783 73.4851 4.36239C73.4851 4.98632 73.3991 5.55737 73.2265 6.07545C73.0538 6.59354 72.8058 7.03643 72.4825 7.40411C72.1591 7.77179 71.7558 8.0587 71.2712 8.26483C70.7865 8.47095 70.2372 8.57401 69.6245 8.57401L67.3352 8.57401L67.3352 11.5656L64.7946 11.5656L64.7946 0.21759L69.6172 0.21759L69.6172 0.21759ZM57.0919 5.78326L58.6799 5.78326C59.1032 5.78326 59.4346 5.63286 59.6739 5.33207C59.9132 5.03121 60.0332 4.66908 60.0332 4.24569C60.0332 3.84463 59.9132 3.49363 59.6739 3.19277C59.4346 2.89197 59.1032 2.74158 58.6799 2.74158L57.0919 2.74158L57.0919 5.78326L57.0919 5.78326ZM58.6779 0.21759C59.2459 0.21759 59.7752 0.315056 60.2652 0.510052C60.7559 0.705049 61.1846 0.980845 61.5526 1.33737C61.9199 1.6939 62.2066 2.11729 62.4132 2.60755C62.6192 3.09775 62.7219 3.63814 62.7219 4.22866C62.7219 5.18685 62.4992 6.01137 62.0539 6.70218C61.6079 7.39297 60.9786 7.85536 60.1652 8.08934L63.0899 11.5656L60.0146 11.5656L57.0899 8.15619L57.0899 11.5656L54.5826 11.5656L54.5826 0.21759L58.6779 0.21759L58.6779 0.21759ZM46.661 9.04197L52.1763 9.04197L52.1763 11.5656L44.121 11.5656L44.121 0.21759L52.1763 0.21759L52.1763 2.74122L46.661 2.74122L46.6783 4.88045L52.0763 4.88045L52.0596 7.27041L46.661 7.27041L46.661 9.04197L46.661 9.04197ZM39.7116 5.9835C39.7116 5.57124 39.653 5.17572 39.536 4.79692C39.419 4.41806 39.2492 4.07827 39.0263 3.7774C38.8035 3.47661 38.5333 3.23428 38.2157 3.05042C37.8982 2.86655 37.5333 2.76349 37.1211 2.74122C37.0653 2.74122 37.0013 2.73842 36.9289 2.73289C36.8565 2.72729 36.7478 2.72449 36.6029 2.72449C36.4581 2.72449 36.2575 2.72449 36.0013 2.72449C35.745 2.72449 35.3996 2.72449 34.9651 2.72449L34.9651 9.05867L37.1545 9.05867C37.2436 9.05867 37.3383 9.04753 37.4386 9.02524C37.5389 9.00296 37.6336 8.98068 37.7227 8.95839C38.057 8.85811 38.3466 8.71049 38.5918 8.51551C38.8369 8.32052 39.043 8.08933 39.2102 7.82192C39.3773 7.55451 39.5026 7.26204 39.5862 6.9445C39.6698 6.62695 39.7116 6.30663 39.7116 5.9835L39.7116 5.9835L39.7116 5.9835ZM42.2513 6.03366C42.2513 6.90273 42.1151 7.68266 41.8425 8.37346C41.5699 9.06426 41.1862 9.64642 40.6913 10.12C40.1963 10.5935 39.5985 10.9556 38.8978 11.2063C38.197 11.457 37.424 11.5823 36.5786 11.5823L32.4742 11.5656L32.4742 0.21759L36.5786 0.21759C37.424 0.21759 38.1942 0.359655 38.8894 0.643783C39.5846 0.927913 40.1824 1.32624 40.6829 1.83877C41.1834 2.35129 41.5699 2.96408 41.8425 3.67714C42.1151 4.39026 42.2513 5.17571 42.2513 6.03366L42.2513 6.03366L42.2513 6.03366ZM27.5595 0.217263L30.0665 0.217263L30.0665 11.9998L23.1808 5.71578L23.1808 11.5653L20.6738 11.5653L20.6738 0L27.5595 6.13359L27.5595 0.217263L27.5595 0.217263ZM12.753 9.04197L18.2683 9.04197L18.2683 11.5656L10.2126 11.5656L10.2126 0.21759L18.2683 0.21759L18.2683 2.74122L12.753 2.74122L12.7697 4.88045L18.168 4.88045L18.1513 7.27041L12.753 7.27041L12.753 9.04197L12.753 9.04197ZM2.50842 5.78326L4.09614 5.78326C4.51953 5.78326 4.851 5.63286 5.09053 5.33207C5.33006 5.03121 5.44986 4.66908 5.44986 4.24569C5.44986 3.84463 5.33006 3.49363 5.09053 3.19277C4.851 2.89197 4.51953 2.74158 4.09614 2.74158L2.50842 2.74158L2.50842 5.78326L2.50842 5.78326ZM4.09469 0.21759C4.66288 0.21759 5.19214 0.315056 5.6824 0.510052C6.17266 0.705049 6.60159 0.980845 6.96925 1.33737C7.33698 1.6939 7.62385 2.11729 7.82998 2.60755C8.03611 3.09775 8.13917 3.63814 8.13917 4.22866C8.13917 5.18685 7.91638 6.01137 7.47065 6.70218C7.02499 7.39297 6.39546 7.85536 5.58214 8.08934L8.5069 11.5656L5.43167 11.5656L2.50691 8.15619L2.50691 11.5656L0 11.5656L0 0.21759L4.09469 0.21759L4.09469 0.21759Z" id="RENDERPUB-3" fill="#E5E5E5" fill-rule="evenodd" stroke="none" />
        </g>
      </g>
      <path d="M8.14856 16.0001Q10.5275 15.9864 13.0704 17.0528L12.4005 19.5275Q9.85754 18.5431 8.09387 18.5431Q6.30286 18.5431 5.25012 19.2403Q4.19739 19.9376 4.19739 21.1817Q4.19739 22.0841 4.57336 22.6788C4.82402 23.0753 5.25012 23.433 5.85168 23.7521C6.45325 24.0711 7.29179 24.3901 8.36731 24.7091Q11.2521 25.5431 12.4689 26.9034Q13.6857 28.2638 13.6857 30.588Q13.6857 33.254 11.8947 34.7716Q10.1036 36.2892 6.97278 36.2892Q4.27942 36.2892 0.984497 34.8946L1.79114 32.461Q3.63684 33.1856 4.73059 33.4659C5.45976 33.6528 6.20715 33.7462 6.97278 33.7462Q8.79114 33.7462 9.84387 32.9054C10.5457 32.3448 10.8966 31.5815 10.8966 30.6153Q10.8966 29.6856 10.5001 29.0704C10.2358 28.6603 9.78235 28.2911 9.13977 27.963C8.49719 27.6349 7.58801 27.3113 6.41223 26.9923Q3.71887 26.2677 2.55676 24.9962Q1.39465 23.7247 1.39465 21.5646Q1.39465 18.9259 3.1925 17.463Q4.99036 16.0001 8.14856 16.0001ZM80.8282 21.4005C82.004 21.3914 83.3667 21.6967 84.9161 22.3165L84.2189 24.504C82.8517 23.9663 81.7215 23.6974 80.8282 23.6974C80.0079 23.6974 79.3608 23.8546 78.8868 24.1691C78.4129 24.4835 78.1759 24.9142 78.1759 25.4611C78.1759 25.9806 78.3855 26.3771 78.8048 26.6505C79.2241 26.924 79.853 27.1883 80.6915 27.4435C81.685 27.7625 82.4757 28.0564 83.0636 28.3253Q83.9454 28.7286 84.6017 29.6105Q85.2579 30.4923 85.2579 31.9552C85.2579 33.2768 84.7817 34.3295 83.8292 35.1134C82.8767 35.8973 81.5893 36.2892 79.9669 36.2892C78.2716 36.2892 76.6355 35.9292 75.0587 35.2091L75.879 32.9396C76.7723 33.3133 77.5219 33.5776 78.1281 33.7325C78.7342 33.8875 79.338 33.965 79.9396 33.965C80.7963 33.965 81.4572 33.7986 81.922 33.4659Q82.6193 32.9669 82.6193 32.0099Q82.6193 31.3947 82.2296 30.9913C81.9698 30.7225 81.6486 30.5128 81.2657 30.3624C80.8829 30.212 80.3361 30.0229 79.6251 29.795C78.7683 29.5125 78.0642 29.2322 77.5128 28.9542C76.9614 28.6762 76.4943 28.257 76.1115 27.6964Q75.5372 26.8556 75.5372 25.4884C75.5372 24.2397 76.018 23.2462 76.9796 22.5079C77.9412 21.7697 79.2241 21.4005 80.8282 21.4005ZM54.1407 21.4005Q56.3966 21.4005 58.4747 22.6036L57.5587 24.7091C56.3829 24.0528 55.2436 23.7247 54.1407 23.7247C52.8009 23.7247 51.7664 24.1668 51.0372 25.0509C50.3081 25.935 49.9435 27.1928 49.9435 28.8243C49.9435 30.465 50.3172 31.7182 51.0646 32.5841C51.812 33.45 52.892 33.8829 54.3048 33.8829C54.8243 33.8829 55.4077 33.8032 56.0548 33.6437C56.7019 33.4842 57.3217 33.2768 57.9142 33.0216L58.6251 35.1134Q57.5587 35.6192 56.3282 35.9132C55.5079 36.1092 54.7332 36.2071 54.004 36.2071Q50.7775 36.2071 49.0138 34.2794C47.838 32.9942 47.2501 31.1759 47.2501 28.8243C47.2501 26.491 47.8562 24.6704 49.0685 23.3624C50.2807 22.0545 51.9715 21.4005 54.1407 21.4005ZM63.0958 29.3165C63.1687 30.8113 63.5698 31.9552 64.299 32.7482C65.0281 33.5411 66.0535 33.9376 67.3751 33.9376Q68.4689 33.9376 69.4874 33.7052C70.1665 33.5502 70.9389 33.2859 71.8048 32.9122L72.6388 34.8673C71.6453 35.3504 70.7156 35.7036 69.8497 35.9269C68.9838 36.1502 68.1134 36.2618 67.2384 36.2618C65.0691 36.2618 63.3875 35.6101 62.1935 34.3067C60.9995 33.0034 60.4025 31.1759 60.4025 28.8243Q60.4025 25.297 62.1661 23.3487C63.3419 22.0499 65.0053 21.4005 67.1564 21.4005C69.1707 21.4005 70.6723 22.0066 71.6613 23.2189C72.6502 24.4311 73.1447 26.2677 73.1447 28.7286L73.1447 29.3165L63.0958 29.3165ZM38.5138 21.4279Q41.2072 21.4279 42.6632 22.8429Q44.1193 24.2579 44.1193 26.8829L44.1193 36.0431L42.0958 36.0431L41.713 34.3614Q39.6075 36.3165 36.9825 36.3165C35.5424 36.3165 34.3986 35.9291 33.5509 35.1544Q32.2794 33.9923 32.2794 32.0372C32.2794 30.5242 32.8992 29.3439 34.1388 28.4962Q35.9982 27.2247 39.3615 27.2247L41.4806 27.2247L41.4806 26.8282Q41.3712 23.7521 38.3224 23.7521Q37.3927 23.7521 36.2306 24.0323Q35.0685 24.3126 33.8927 24.7911L33.1681 22.6583C34.0066 22.2664 34.893 21.9633 35.8273 21.7491Q37.2286 21.4279 38.5138 21.4279ZM70.424 27.1154C70.351 25.9943 70.0343 25.1489 69.4738 24.5792C68.9132 24.0096 68.1407 23.7247 67.1564 23.7247C64.9689 23.7247 63.6609 24.8549 63.2325 27.1154L70.424 27.1154ZM39.5255 29.2345C38.0672 29.2345 36.9324 29.4738 36.1212 29.9523C35.31 30.4308 34.9044 31.0984 34.9044 31.9552C34.9044 32.6115 35.1277 33.115 35.5743 33.4659C36.021 33.8168 36.6453 33.9923 37.4474 33.9923C38.213 33.9923 38.9604 33.8305 39.6896 33.507C40.4187 33.1834 41.0157 32.7482 41.4806 32.2013L41.4806 29.2345L39.5255 29.2345ZM23.8575 21.4279C25.8719 21.4279 27.4282 22.0522 28.5265 23.3009C29.6248 24.5496 30.1739 26.3224 30.174 28.6193C30.174 31.0073 29.5223 32.8826 28.2189 34.2452C26.9155 35.6079 25.1062 36.2892 22.7911 36.2892C21.9161 36.2892 20.8953 36.1616 19.7286 35.9064L19.7301 42L17.1051 42L17.1036 21.674L19.2091 21.674L19.5646 23.465C20.1844 22.754 20.8383 22.2368 21.5265 21.9132C22.2146 21.5896 22.9917 21.4279 23.8575 21.4279L23.8575 21.4279ZM22.7638 33.965C24.2586 33.965 25.4207 33.4956 26.2501 32.5568C27.0795 31.618 27.4943 30.3055 27.4943 28.6193C27.4943 27.0698 27.1616 25.8712 26.4962 25.0236C25.8309 24.1759 24.892 23.7521 23.6798 23.7521C22.7319 23.7521 21.9161 23.9891 21.2325 24.463C20.549 24.937 20.0476 25.6342 19.7286 26.5548L19.7286 33.5548C20.4943 33.7371 21.0548 33.851 21.4103 33.8966C21.7657 33.9422 22.2169 33.965 22.7638 33.965L22.7638 33.965Z" id="Spaces" fill="#E5E5E5" stroke="none" />
    </g>
  </g>
</svg>