<?xml version="1.0" encoding="utf-8"?>
<svg width="575px" height="460px" viewBox="0 0 575 460" version="1.1" xmlns:xlink="http://www.w3.org/1999/xlink" xmlns="http://www.w3.org/2000/svg">
  <defs>
    <path d="M0 0L575 0L575 460L0 460L0 0Z" id="path_1" />
    <clipPath id="mask_1">
      <use xlink:href="#path_1" />
    </clipPath>
  </defs>
  <g id="Group-5">
    <g id="users">
      <path d="M0 0L575 0L575 460L0 460L0 0Z" id="Background" fill="none" fill-rule="evenodd" stroke="none" />
      <g clip-path="url(#mask_1)">
        <path d="M488.75 201.25C528.461 201.25 560.625 169.086 560.625 129.375C560.625 89.6641 528.461 57.5 488.75 57.5C449.039 57.5 416.875 89.6641 416.875 129.375C416.875 169.086 449.039 201.25 488.75 201.25L488.75 201.25ZM488.75 86.25C512.559 86.25 531.875 105.566 531.875 129.375C531.875 153.184 512.559 172.5 488.75 172.5C464.941 172.5 445.625 153.184 445.625 129.375C445.625 105.566 464.941 86.25 488.75 86.25L488.75 86.25ZM287.5 230C343.113 230 388.125 184.988 388.125 129.375C388.125 73.7617 343.113 28.75 287.5 28.75C231.887 28.75 186.875 73.7617 186.875 129.375C186.875 184.988 231.887 230 287.5 230L287.5 230ZM287.5 57.5C327.121 57.5 359.375 89.7539 359.375 129.375C359.375 168.996 327.121 201.25 287.5 201.25C247.879 201.25 215.625 168.996 215.625 129.375C215.625 89.7539 247.879 57.5 287.5 57.5L287.5 57.5ZM506.719 230L470.781 230C457.125 230 444.457 234.312 433.855 241.59C442.301 247.34 449.937 254.078 456.676 261.715C461.078 259.828 465.84 258.75 470.781 258.75L506.719 258.75C528.461 258.75 546.25 278.066 546.25 301.875C546.25 309.781 552.719 316.25 560.625 316.25C568.531 316.25 575 309.781 575 301.875C575 262.254 544.363 230 506.719 230L506.719 230ZM86.25 201.25C125.961 201.25 158.125 169.086 158.125 129.375C158.125 89.6641 125.961 57.5 86.25 57.5C46.5391 57.5 14.375 89.6641 14.375 129.375C14.375 169.086 46.5391 201.25 86.25 201.25L86.25 201.25ZM86.25 86.25C110.059 86.25 129.375 105.566 129.375 129.375C129.375 153.184 110.059 172.5 86.25 172.5C62.4414 172.5 43.125 153.184 43.125 129.375C43.125 105.566 62.4414 86.25 86.25 86.25L86.25 86.25ZM359.465 247.969C329.457 247.969 322 258.75 287.5 258.75C253 258.75 245.543 247.969 215.535 247.969C182.922 247.969 151.207 262.523 132.609 290.105C121.469 306.637 115 326.492 115 347.875L115 388.125C115 411.934 134.316 431.25 158.125 431.25L416.875 431.25C440.684 431.25 460 411.934 460 388.125L460 347.875C460 326.492 453.531 306.637 442.391 290.105C423.793 262.523 392.078 247.969 359.465 247.969L359.465 247.969ZM431.25 388.125C431.25 396.031 424.781 402.5 416.875 402.5L158.125 402.5C150.219 402.5 143.75 396.031 143.75 388.125L143.75 347.875C143.75 332.961 148.152 318.496 156.418 306.188C168.816 287.77 190.918 276.719 215.445 276.719C240.063 276.719 248.867 287.5 287.5 287.5C326.133 287.5 334.938 276.719 359.465 276.719C383.992 276.719 406.094 287.77 418.492 306.188C426.758 318.496 431.16 332.961 431.16 347.875L431.16 388.125L431.25 388.125ZM141.145 241.59C130.453 234.312 117.785 230 104.219 230L68.2812 230C30.6367 230 0 262.254 0 301.875C0 309.781 6.46875 316.25 14.375 316.25C22.2812 316.25 28.75 309.781 28.75 301.875C28.75 278.066 46.5391 258.75 68.2812 258.75L104.219 258.75C109.16 258.75 113.922 259.828 118.324 261.715C125.062 254.078 132.789 247.34 141.145 241.59L141.145 241.59Z" id="Shape" fill="#FFFFFF" fill-rule="evenodd" stroke="none" />
      </g>
    </g>
  </g>
</svg>