<?xml version="1.0" encoding="utf-8"?>
<svg width="281px" height="42px" viewBox="0 0 281 42" version="1.1" xmlns:xlink="http://www.w3.org/1999/xlink" xmlns="http://www.w3.org/2000/svg">
  <defs>
    <path d="M0 0L48 0L48 42L0 42L0 0Z" id="path_1" />
    <clipPath id="mask_1">
      <use xlink:href="#path_1" />
    </clipPath>
  </defs>
  <g id="Group-31">
    <g id="RenderpubMainLogo-2">
      <path d="M0 0L48 0L48 42L0 42L0 0Z" id="Background" fill="none" fill-rule="evenodd" stroke="none" />
      <g clip-path="url(#mask_1)">
        <g id="layer1">
          <path d="M0 0L38 0C44 0 48 4 48 10C47.9984 14.525 47.9995 18.475 48 23C48 25.933 47.0442 28.388 45.3662 30.1316L48 32L48 42L24 25L2.88355e-05 42L2.88355e-05 32L2.88355e-05 10L0 0ZM10 22.9996L12.71 23.0001L24 15.0001L35.29 23.0001L38 23.0001L38 10.0001L10 10.0001L10 22.9996Z" id="Vector-Union-2" fill="#E5E5E5" fill-rule="evenodd" stroke="none" />
        </g>
      </g>
    </g>
    <g id="Group-23" transform="translate(56 7)">
      <g id="Group">
        <path d="M214.542 21.2136C214.929 21.2136 215.331 21.1811 215.744 21.1162C216.16 21.0512 216.535 20.9407 216.871 20.7847C217.208 20.6287 217.479 20.4142 217.687 20.1412C217.894 19.8682 217.997 19.5368 217.997 19.1468C217.997 18.0029 217.712 17.2489 217.143 16.8849C216.574 16.521 215.732 16.339 214.618 16.339L208.6 16.339L208.6 21.2136L214.542 21.2136L214.542 21.2136ZM217.14 8.57935C217.14 8.1634 217.036 7.7994 216.829 7.48735C216.622 7.17546 216.351 6.92844 216.014 6.74644C215.678 6.56444 215.303 6.42802 214.887 6.33702C214.474 6.24602 214.06 6.20044 213.646 6.20044L208.6 6.20044L208.6 10.9581L213.607 10.9581C214.072 10.9581 214.512 10.9256 214.926 10.8607C215.342 10.7957 215.716 10.6787 216.052 10.5096C216.388 10.3407 216.654 10.1002 216.849 9.78818C217.042 9.47629 217.14 9.07324 217.14 8.57935L217.14 8.57935L217.14 8.57935ZM222.873 8.69708C222.873 9.76311 222.717 10.7055 222.405 11.5245C222.094 12.3433 221.573 13.0519 220.845 13.6498C221.209 13.9357 221.58 14.2543 221.957 14.6052C222.333 14.9562 222.671 15.3462 222.971 15.7751C223.27 16.2041 223.517 16.6916 223.711 17.2375C223.906 17.7835 224.004 18.3815 224.004 19.0314C224.004 20.5913 223.763 21.8847 223.282 22.9117C222.801 23.9386 222.139 24.7575 221.294 25.3685C220.448 25.9794 219.441 26.4019 218.272 26.6359C217.102 26.8699 215.814 26.9869 214.411 26.9869L202.672 26.9869L202.789 0.50769L213.085 0.50769C214.411 0.50769 215.664 0.650646 216.848 0.936715C218.03 1.22263 219.071 1.69069 219.967 2.34061C220.865 2.99052 221.573 3.8355 222.094 4.87539C222.613 5.91528 222.873 7.18928 222.873 8.69708L222.873 8.69708L222.873 8.69708ZM197.565 0.50769C197.616 2.63958 197.655 4.98583 197.681 7.54675C197.708 10.1075 197.72 12.6619 197.72 15.2097C197.72 15.4957 197.72 15.7751 197.72 16.0481C197.72 16.3211 197.694 16.5616 197.642 16.7696L197.642 16.7306C197.383 19.9544 196.264 22.4697 194.289 24.2765C192.313 26.0834 189.7 26.9869 186.45 26.9869C184.916 26.9869 183.505 26.7334 182.219 26.2264C180.933 25.7195 179.794 25.011 178.806 24.1011C177.818 23.1911 177.019 22.1057 176.409 20.8448C175.798 19.5839 175.413 18.2125 175.258 16.7306C175.206 16.4446 175.18 16.1261 175.18 15.7751C175.18 15.4242 175.18 15.0797 175.18 14.7417L175.258 0.50769L181.186 0.50769L181.186 16.4186C181.186 17.0945 181.334 17.712 181.633 18.271C181.93 18.8299 182.333 19.3109 182.837 19.7139C183.342 20.1168 183.905 20.4288 184.527 20.6498C185.148 20.8708 185.797 20.9813 186.47 20.9813C187.117 20.9813 187.746 20.8708 188.354 20.6498C188.962 20.4288 189.513 20.1168 190.005 19.7139C190.496 19.3109 190.891 18.8299 191.19 18.271C191.487 17.712 191.636 17.0945 191.636 16.4186L191.636 0.50769L197.565 0.50769L197.565 0.50769ZM157.12 14.1185L162.438 14.1185C162.904 14.1185 163.33 13.9962 163.719 13.7516C164.106 13.5071 164.436 13.1918 164.708 12.8057C164.98 12.4196 165.187 11.982 165.329 11.4933C165.472 11.0043 165.543 10.5153 165.543 10.0262C165.543 9.56266 165.472 9.11217 165.329 8.67474C165.187 8.23716 164.98 7.85123 164.708 7.51663C164.436 7.18219 164.106 6.91198 163.719 6.70603C163.33 6.50007 162.904 6.39709 162.438 6.39709L157.12 6.39709L157.12 14.1185L157.12 14.1185ZM162.443 0.50769C163.771 0.50769 164.989 0.754713 166.097 1.2486C167.203 1.74265 168.153 2.42507 168.948 3.29603C169.743 4.16699 170.362 5.19381 170.804 6.37681C171.247 7.55966 171.468 8.82713 171.468 10.1791C171.468 11.6349 171.268 12.9674 170.865 14.1763C170.462 15.3852 169.883 16.4186 169.129 17.2765C168.374 18.1345 167.433 18.8039 166.302 19.2849C165.171 19.7659 163.89 20.0064 162.46 20.0064L157.118 20.0064L157.118 26.9869L151.19 26.9869L151.19 0.50769L162.443 0.50769L162.443 0.50769ZM133.217 13.4945L136.922 13.4945C137.91 13.4945 138.683 13.1435 139.241 12.4417C139.8 11.7397 140.08 10.8947 140.08 9.90674C140.08 8.97092 139.8 8.15192 139.241 7.4499C138.683 6.74803 137.91 6.39709 136.922 6.39709L133.217 6.39709L133.217 13.4945L133.217 13.4945ZM136.917 0.50769C138.243 0.50769 139.478 0.735113 140.621 1.19011C141.766 1.64511 142.766 2.28865 143.625 3.12056C144.482 3.95248 145.151 4.94041 145.633 6.08437C146.114 7.22817 146.353 8.48911 146.353 9.86702C146.353 12.1028 145.834 14.0268 144.795 15.6387C143.754 17.2505 142.286 18.3295 140.388 18.8754L147.212 26.9869L140.036 26.9869L133.212 19.0314L133.212 26.9869L127.361 26.9869L127.361 0.50769L136.917 0.50769L136.917 0.50769ZM108.878 21.0983L121.747 21.0983L121.747 26.9869L102.951 26.9869L102.951 0.50769L121.747 0.50769L121.747 6.39626L108.878 6.39626L108.918 11.3879L121.513 11.3879L121.475 16.9646L108.878 16.9646L108.878 21.0983L108.878 21.0983ZM92.662 13.9617C92.662 12.9998 92.5254 12.0769 92.2524 11.193C91.9794 10.309 91.583 9.51611 91.063 8.81409C90.5431 8.11222 89.9127 7.54677 89.1716 7.11775C88.4307 6.68873 87.5793 6.44824 86.6174 6.39628C86.4873 6.39628 86.3378 6.38975 86.1689 6.37684C86 6.36377 85.7464 6.35724 85.4084 6.35724C85.0704 6.35724 84.6024 6.35724 84.0045 6.35724C83.4065 6.35724 82.6006 6.35724 81.5867 6.35724L81.5867 21.1373L86.6953 21.1373C86.9033 21.1373 87.1243 21.1113 87.3583 21.0593C87.5922 21.0073 87.8133 20.9553 88.0213 20.9033C88.8012 20.6693 89.4771 20.3248 90.0491 19.8699C90.6211 19.4149 91.102 18.8754 91.492 18.2515C91.882 17.6275 92.1745 16.945 92.3694 16.2041C92.5644 15.4632 92.662 14.7157 92.662 13.9617L92.662 13.9617L92.662 13.9617ZM98.5881 14.0788C98.5881 16.1066 98.2702 17.9265 97.6341 19.5384C96.9982 21.1503 96.1028 22.5087 94.948 23.6136C93.793 24.7185 92.3981 25.5635 90.763 26.1484C89.128 26.7334 87.3241 27.0259 85.3515 27.0259L75.7745 26.9869L75.7745 0.50769L85.3515 0.50769C87.3241 0.50769 89.1214 0.839181 90.7436 1.50216C92.3656 2.16514 93.7606 3.09458 94.9284 4.2905C96.0963 5.48641 96.9982 6.91628 97.6341 8.58011C98.2702 10.2441 98.5881 12.0768 98.5881 14.0788L98.5881 14.0788L98.5881 14.0788ZM64.3067 0.506955L70.1564 0.506955L70.1564 28L54.0894 13.337L54.0894 26.9861L48.2397 26.9861L48.2397 0L64.3067 14.312L64.3067 0.506955L64.3067 0.506955ZM29.7576 21.0983L42.6268 21.0983L42.6268 26.9869L23.83 26.9869L23.83 0.50769L42.6268 0.50769L42.6268 6.39626L29.7576 6.39626L29.7965 11.3879L42.3927 11.3879L42.3538 16.9646L29.7576 16.9646L29.7576 21.0983L29.7576 21.0983ZM5.85315 13.4945L9.55788 13.4945C10.5458 13.4945 11.3192 13.1435 11.8782 12.4417C12.4371 11.7397 12.7166 10.8947 12.7166 9.90674C12.7166 8.97092 12.4371 8.15192 11.8782 7.4499C11.3192 6.74803 10.5458 6.39709 9.55788 6.39709L5.85315 6.39709L5.85315 13.4945L5.85315 13.4945ZM9.62674 0.50769C10.9626 0.50769 12.2069 0.735113 13.3595 1.19011C14.5121 1.64511 15.5205 2.28865 16.3849 3.12056C17.2495 3.95248 17.9239 4.94041 18.4085 6.08437C18.8931 7.22817 19.1355 8.48911 19.1355 9.86702C19.1355 12.1028 18.6117 14.0268 17.5637 15.6387C16.516 17.2505 15.0359 18.3295 13.1238 18.8754L20 26.9869L12.77 26.9869L5.89382 19.0314L5.89382 26.9869L0 26.9869L0 0.50769L9.62674 0.50769L9.62674 0.50769Z" id="RENDERPUB" fill="#E5E5E5" fill-rule="evenodd" stroke="none" />
      </g>
    </g>
  </g>
</svg>