<?xml version="1.0" encoding="utf-8"?>
<svg width="575px" height="513px" viewBox="0 0 575 513" version="1.1" xmlns:xlink="http://www.w3.org/1999/xlink" xmlns="http://www.w3.org/2000/svg">
  <defs>
    <path d="M0 0L176.305 0L176.305 314L0 314L0 0Z" id="path_1" />
    <clipPath id="mask_1">
      <use xlink:href="#path_1" />
    </clipPath>
  </defs>
  <g id="Group-4">
    <g id="home-heart">
      <path d="M572.489 219.925L511.101 170.425L511.101 72.025C511.101 67.625 507.507 64.025 503.115 64.025L487.144 64.025C482.752 64.025 479.159 67.625 479.159 72.025L479.159 144.625L310.065 8.025C296.889 -2.675 278.023 -2.675 264.947 8.025L2.52255 219.925C-0.372201 222.325 -0.871296 226.525 1.52436 229.425L15.6987 246.925C18.0943 249.825 22.2867 250.325 25.2813 247.925L63.9113 216.725L63.9113 496.025C63.9113 504.825 71.0982 512.025 79.8823 512.025L495.13 512.025C503.914 512.025 511.101 504.825 511.101 496.025L511.101 216.825L549.83 248.125C552.725 250.525 557.017 250.025 559.413 247.125L573.587 229.625C575.883 226.625 575.284 222.325 572.489 219.925L572.489 219.925ZM479.159 480.025L95.8534 480.025L95.8534 190.925L283.214 39.525C285.709 37.525 289.203 37.525 291.599 39.525L479.159 191.025L479.159 480.025L479.159 480.025Z" id="Shape" fill="#FFFFFF" fill-rule="evenodd" stroke="none" />
    </g>
    <g id="dollar-sign-(1)" transform="translate(199.34033 113.60791)">
      <path d="M0 0L176.305 0L176.305 314L0 314L0 0Z" id="Background" fill="none" fill-rule="evenodd" stroke="none" />
      <g clip-path="url(#mask_1)">
        <path d="M129.719 148.475L58.5236 128.114C48.8513 125.355 41.0155 117.566 39.485 107.57C37.0976 91.9922 49.1574 78.5 64.278 78.5L109.456 78.5C119.19 78.5 128.74 81.5664 136.637 87.1473C140.555 89.907 145.819 89.4777 149.186 86.1047L163.205 72.0606C167.368 67.8902 166.939 60.8988 162.287 57.2805C147.166 45.5668 128.801 39.25 109.456 39.25L107.742 39.25L107.742 9.8125C107.742 4.41563 103.335 0 97.9474 0L78.3579 0C72.9708 0 68.5632 4.41563 68.5632 9.8125L68.5632 39.25L67.0328 39.25C36.9139 39.25 9.12134 58.7523 1.89771 88.0672C-6.61147 122.534 14.2636 156.264 46.5862 165.525L117.782 185.886C127.454 188.645 135.29 196.434 136.82 206.43C139.208 222.008 127.148 235.5 112.027 235.5L66.8491 235.5C57.1156 235.5 47.5657 232.434 39.6687 226.853C35.7508 224.093 30.4861 224.522 27.1192 227.895L13.1004 241.939C8.93768 246.11 9.3662 253.101 14.0187 256.72C29.0781 268.433 47.4433 274.75 66.8491 274.75L68.5632 274.75L68.5632 304.188C68.5632 309.584 72.9708 314 78.3579 314L97.9474 314C103.335 314 107.742 309.584 107.742 304.188L107.742 274.75L109.273 274.75C139.391 274.75 167.184 255.248 174.408 225.933C182.917 191.466 162.042 157.736 129.719 148.475L129.719 148.475Z" id="Shape" fill="#FFFFFF" stroke="none" />
      </g>
    </g>
  </g>
</svg>