<?xml version="1.0" encoding="utf-8"?>
<svg width="575px" height="575px" viewBox="0 0 575 575" version="1.1" xmlns:xlink="http://www.w3.org/1999/xlink" xmlns="http://www.w3.org/2000/svg">
  <defs>
    <path d="M0 0L575 0L575 575L0 575L0 0Z" id="path_1" />
    <clipPath id="mask_1">
      <use xlink:href="#path_1" />
    </clipPath>
  </defs>
  <g id="Group-3">
    <g id="repeat">
      <path d="M0 0L575 0L575 575L0 575L0 0Z" id="Background" fill="none" fill-rule="evenodd" stroke="none" />
      <g clip-path="url(#mask_1)">
        <path d="M575 287.5C575 386.581 494.393 467.188 395.312 467.188L124.24 467.188L200.833 543.78C206.096 549.043 206.096 557.576 200.833 562.84L194.481 569.192C189.219 574.454 180.686 574.454 175.422 569.192L64.9783 458.748C59.7157 453.485 59.7157 444.952 64.9783 439.689L175.422 329.245C180.685 323.982 189.218 323.982 194.481 329.245L200.833 335.597C206.096 340.859 206.096 349.392 200.833 354.656L124.24 431.25L395.312 431.25C474.576 431.25 539.062 366.764 539.062 287.5C539.062 255.431 528.503 225.786 510.682 201.847C506.676 196.466 507.18 188.975 511.924 184.231L518.331 177.824C524.126 172.029 533.692 172.718 538.639 179.252C561.45 209.379 575 246.885 575 287.5L575 287.5ZM64.318 373.153C46.4975 349.214 35.9375 319.569 35.9375 287.5C35.9375 208.236 100.424 143.75 179.688 143.75L450.76 143.75L374.167 220.343C368.904 225.605 368.904 234.138 374.167 239.402L380.519 245.754C385.781 251.017 394.314 251.017 399.578 245.754L510.022 135.31C515.284 130.048 515.284 121.515 510.022 116.251L399.579 5.80838C394.316 0.545786 385.783 0.545786 380.52 5.80838L374.168 12.1603C368.905 17.4229 368.905 25.9558 374.168 31.2196L450.76 107.812L179.688 107.812C80.6067 107.812 0 188.419 0 287.5C0 328.115 13.5496 365.621 36.3598 395.747C41.3068 402.281 50.8729 402.971 56.6678 397.174L63.0748 390.768C67.8197 386.024 68.3239 378.534 64.318 373.153L64.318 373.153Z" id="Shape" fill="#FFFFFF" fill-rule="evenodd" stroke="none" />
      </g>
    </g>
  </g>
</svg>