<?xml version="1.0" encoding="UTF-8" standalone="no"?>
<svg
   xmlns:dc="http://purl.org/dc/elements/1.1/"
   xmlns:cc="http://creativecommons.org/ns#"
   xmlns:rdf="http://www.w3.org/1999/02/22-rdf-syntax-ns#"
   xmlns:svg="http://www.w3.org/2000/svg"
   xmlns="http://www.w3.org/2000/svg"
   xmlns:sodipodi="http://sodipodi.sourceforge.net/DTD/sodipodi-0.dtd"
   xmlns:inkscape="http://www.inkscape.org/namespaces/inkscape"
   width="12.7mm"
   height="11.1125mm"
   viewBox="0 0 12.7 11.1125"
   version="1.1"
   id="svg8"
   inkscape:version="1.0.2 (e86c870879, 2021-01-15, custom)"
   sodipodi:docname="RenderpubStitchLogo.svg">
  <defs
     id="defs2">
    <inkscape:path-effect
       effect="spiro"
       id="path-effect844"
       is_visible="true"
       lpeversion="1" />
  </defs>
  <sodipodi:namedview
     id="base"
     pagecolor="#ffffff"
     bordercolor="#666666"
     borderopacity="1.0"
     inkscape:pageopacity="0.0"
     inkscape:pageshadow="2"
     inkscape:zoom="7.9195959"
     inkscape:cx="46.883951"
     inkscape:cy="39.883026"
     inkscape:document-units="mm"
     inkscape:current-layer="layer1"
     inkscape:document-rotation="0"
     showgrid="false"
     inkscape:window-width="1920"
     inkscape:window-height="1017"
     inkscape:window-x="1912"
     inkscape:window-y="-8"
     inkscape:window-maximized="1">
    <inkscape:grid
       type="xygrid"
       id="grid852"
       originx="-9.2604166"
       originy="-9.2604166" />
  </sodipodi:namedview>
  <metadata
     id="metadata5">
    <rdf:RDF>
      <cc:Work
         rdf:about="">
        <dc:format>image/svg+xml</dc:format>
        <dc:type
           rdf:resource="http://purl.org/dc/dcmitype/StillImage" />
        <dc:title></dc:title>
      </cc:Work>
    </rdf:RDF>
  </metadata>
  <g
     inkscape:label="Layer 1"
     inkscape:groupmode="layer"
     id="layer1"
     transform="translate(-174.51161,-188.15655)">
    <path
       id="Vector-Union-2"
       style="stroke-width:0.999999"
       d="m 35,35 v 3 c 1.411563,-0.999855 2.822813,-2.000145 4.234375,-3 z m 7.058594,0 C 39.705701,36.66663 37.352894,38.33337 35,40 v 2 c 3.294225,-2.333405 6.588591,-4.666594 9.882812,-7 z m 5.646484,0 C 43.46996,37.999874 39.235122,41.000128 35,44 v 1 1 c 5.176453,-3.666647 10.35285,-7.333351 15.529297,-11 z m 5.648438,0 C 47.23574,39.333424 41.117784,43.666578 35,48 v 2 C 42.058681,45.00011 49.117111,39.999892 56.175781,35 Z M 59,35 C 51.000002,40.666668 43.000012,46.333336 35,52 v 2 c 3.333441,-2.361183 6.666562,-4.722801 10,-7.083984 V 45 h 2.705078 c 4.706216,-3.333568 9.412928,-6.666431 14.119141,-10 z m 5.646484,0 c -4.705778,3.333262 -9.411405,6.666739 -14.117187,10 h 2.824219 c 4.70578,-3.333262 9.411409,-6.666739 14.117187,-10 z m 5.648438,0 c -4.706211,3.333568 -9.412927,6.666431 -14.119141,10 H 73 V 58 H 70.289062 L 59,50 47.710938,58 H 45 V 52.916016 C 41.666562,55.277199 38.333441,57.638817 35,60 v 7 10 L 59,60 83,77 V 67 L 80.365234,65.130859 C 82.043269,63.387326 83,60.932989 83,58 82.999509,53.474998 82.998375,49.525002 83,45 83,39 79,35 73,35 Z M 45,48.916016 C 41.666562,51.277199 38.333441,53.638817 35,56 v 2 c 3.333441,-2.361183 6.666562,-4.722801 10,-7.083984 z"
       transform="matrix(0.26458333,0,0,0.26458333,165.25119,178.89613)" />
  </g>
</svg>
