<?xml version="1.0" encoding="utf-8"?>
<svg width="149px" height="42px" viewBox="0 0 149 42" version="1.1" xmlns:xlink="http://www.w3.org/1999/xlink" xmlns="http://www.w3.org/2000/svg">
  <defs>
    <path d="M0 0L48 0L48 42L0 42L0 0Z" id="path_1" />
    <clipPath id="mask_1">
      <use xlink:href="#path_1" />
    </clipPath>
  </defs>
  <g id="Group-33">
    <g id="RenderpubStudioLogo">
      <path d="M0 0L48 0L48 42L0 42L0 0Z" id="Background" fill="none" fill-rule="evenodd" stroke="none" />
      <g clip-path="url(#mask_1)">
        <path d="M37.9999 0.00012207L-0.00012207 0.00012207L-9.32348e-05 10.0002L-9.32348e-05 42.0001L23.9999 25.0001L47.9999 42.0001L47.9999 32.0001L45.3661 30.1317C47.0441 28.3881 47.9999 25.9331 47.9999 23.0001C47.9998 22.0867 47.9997 21.1968 47.9995 20.3208C47.9991 16.8571 47.9986 13.6118 47.9999 10.0002C47.9999 4.00012 43.9999 0.00012207 37.9999 0.00012207ZM12.7099 23.0002L9.99988 22.9997L9.99988 10.0002L37.9998 10.0002L37.9998 23.0002L35.2899 23.0002L23.9999 15.0002L12.7099 23.0002ZM24.0019 28.0002L4.24194 42.0002L24.0021 32.0002L43.7619 42.0002L24.0019 28.0002Z" id="layer1-Union" fill="#E5E5E5" fill-rule="evenodd" stroke="none" />
      </g>
    </g>
    <g id="Group-17" transform="translate(52.001953 0.00012207031)">
      <g id="Group-12">
        <g id="Group">
          <path d="M91.9451 9.09142C92.1111 9.09142 92.2831 9.07749 92.4604 9.04964C92.6384 9.02179 92.7991 8.97443 92.9431 8.90758C93.0877 8.84073 93.2037 8.74881 93.2931 8.63182C93.3817 8.51483 93.4257 8.37277 93.4257 8.20564C93.4257 7.7154 93.3037 7.39229 93.0597 7.2363C92.8157 7.08031 92.4551 7.00232 91.9777 7.00232L89.3984 7.00232L89.3984 9.09142L91.9451 9.09142L91.9451 9.09142ZM93.0584 3.6768C93.0584 3.49854 93.0137 3.34254 92.9251 3.20881C92.8364 3.07515 92.7204 2.96928 92.5757 2.89128C92.4317 2.81329 92.2711 2.75482 92.0931 2.71582C91.9157 2.67682 91.7384 2.65729 91.5611 2.65729L89.3984 2.65729L89.3984 4.69626L91.5444 4.69626C91.7438 4.69626 91.9324 4.68232 92.1097 4.65452C92.2877 4.62666 92.4484 4.57652 92.5924 4.50406C92.7364 4.43166 92.8504 4.32859 92.9337 4.19486C93.0164 4.0612 93.0584 3.88847 93.0584 3.6768L93.0584 3.6768L93.0584 3.6768ZM95.5154 3.72727C95.5154 4.18413 95.4487 4.58799 95.3148 4.93899C95.1814 5.28991 94.9581 5.59358 94.6461 5.84984C94.8021 5.97237 94.9614 6.10887 95.1227 6.25928C95.2841 6.4097 95.4287 6.57683 95.5574 6.76067C95.6854 6.94451 95.7914 7.15342 95.8747 7.3874C95.9581 7.62138 96.0001 7.87765 96.0001 8.1562C96.0001 8.82471 95.8967 9.37902 95.6907 9.81912C95.4847 10.2592 95.2007 10.6102 94.8388 10.872C94.4761 11.1339 94.0448 11.3149 93.5434 11.4152C93.0421 11.5155 92.4901 11.5656 91.8888 11.5656L86.8582 11.5656L86.9082 0.21759L91.3208 0.21759C91.8888 0.21759 92.4261 0.278856 92.9334 0.401455C93.4401 0.523986 93.8861 0.724583 94.2701 1.00311C94.6548 1.28164 94.9581 1.64377 95.1814 2.08943C95.4041 2.53509 95.5154 3.08108 95.5154 3.72727L95.5154 3.72727L95.5154 3.72727ZM84.6692 0.21759C84.6912 1.13124 84.7078 2.13676 84.7192 3.23428C84.7305 4.33173 84.7358 5.42644 84.7358 6.51833C84.7358 6.6409 84.7358 6.76067 84.7358 6.87766C84.7358 6.99465 84.7245 7.09771 84.7025 7.18685L84.7025 7.17014C84.5912 8.55173 84.1118 9.62971 83.2652 10.4041C82.4185 11.1784 81.2985 11.5656 79.9059 11.5656C79.2486 11.5656 78.6439 11.457 78.0926 11.2397C77.5412 11.0224 77.0532 10.7188 76.6299 10.3289C76.2066 9.9389 75.8639 9.47372 75.6026 8.93334C75.3406 8.39296 75.1759 7.80522 75.1093 7.17014C75.0873 7.04757 75.0759 6.91109 75.0759 6.76067C75.0759 6.61025 75.0759 6.46263 75.0759 6.31778L75.1093 0.21759L77.6499 0.21759L77.6499 7.03643C77.6499 7.32612 77.7132 7.59074 77.8412 7.83029C77.9686 8.06984 78.1412 8.27597 78.3572 8.44866C78.5739 8.62137 78.8152 8.75507 79.0819 8.84978C79.3479 8.94448 79.6259 8.99184 79.9145 8.99184C80.1919 8.99184 80.4612 8.94448 80.7219 8.84978C80.9825 8.75507 81.2185 8.62137 81.4292 8.44866C81.6399 8.27597 81.8092 8.06984 81.9372 7.83029C82.0645 7.59074 82.1285 7.32612 82.1285 7.03643L82.1285 0.21759L84.6692 0.21759L84.6692 0.21759ZM67.3359 6.05069L69.6152 6.05069C69.8146 6.05069 69.9972 5.99826 70.1639 5.89346C70.3299 5.78866 70.4712 5.65353 70.5879 5.48807C70.7046 5.32261 70.7932 5.13507 70.8539 4.92561C70.9152 4.71608 70.9459 4.50648 70.9459 4.29689C70.9459 4.09822 70.9152 3.90516 70.8539 3.7177C70.7932 3.53017 70.7046 3.36477 70.5879 3.22137C70.4712 3.07804 70.3299 2.96224 70.1639 2.87398C69.9972 2.78571 69.8146 2.74158 69.6152 2.74158L67.3359 2.74158L67.3359 6.05069L67.3359 6.05069ZM69.6173 0.21759C70.1866 0.21759 70.7086 0.323455 71.1833 0.535118C71.6573 0.746849 72.0646 1.03931 72.4053 1.41257C72.7459 1.78583 73.0113 2.22589 73.2006 2.73289C73.3906 3.23981 73.4853 3.783 73.4853 4.36239C73.4853 4.98632 73.3993 5.55738 73.2266 6.07545C73.0539 6.59354 72.8059 7.03643 72.4826 7.40411C72.1593 7.7718 71.7559 8.0587 71.2713 8.26483C70.7866 8.47095 70.2373 8.57402 69.6246 8.57402L67.3353 8.57402L67.3353 11.5656L64.7947 11.5656L64.7947 0.21759L69.6173 0.21759L69.6173 0.21759ZM57.0918 5.78326L58.6798 5.78326C59.1031 5.78326 59.4344 5.63286 59.6738 5.33207C59.9131 5.03121 60.0331 4.66908 60.0331 4.24569C60.0331 3.84463 59.9131 3.49363 59.6738 3.19277C59.4344 2.89197 59.1031 2.74158 58.6798 2.74158L57.0918 2.74158L57.0918 5.78326L57.0918 5.78326ZM58.6778 0.21759C59.2458 0.21759 59.7751 0.315056 60.2651 0.510052C60.7558 0.705049 61.1844 0.980845 61.5524 1.33737C61.9198 1.6939 62.2064 2.11729 62.4131 2.60755C62.6191 3.09775 62.7218 3.63814 62.7218 4.22866C62.7218 5.18685 62.4991 6.01138 62.0538 6.70218C61.6078 7.39297 60.9784 7.85536 60.1651 8.08934L63.0898 11.5656L60.0145 11.5656L57.0898 8.1562L57.0898 11.5656L54.5825 11.5656L54.5825 0.21759L58.6778 0.21759L58.6778 0.21759ZM46.661 9.04198L52.1763 9.04198L52.1763 11.5656L44.121 11.5656L44.121 0.21759L52.1763 0.21759L52.1763 2.74122L46.661 2.74122L46.6783 4.88045L52.0763 4.88045L52.0596 7.27042L46.661 7.27042L46.661 9.04198L46.661 9.04198ZM39.7116 5.98351C39.7116 5.57124 39.653 5.17572 39.536 4.79692C39.419 4.41806 39.2492 4.07827 39.0263 3.7774C38.8035 3.47661 38.5333 3.23428 38.2157 3.05042C37.8982 2.86655 37.5333 2.76349 37.1211 2.74122C37.0653 2.74122 37.0013 2.73842 36.9289 2.73289C36.8565 2.72729 36.7478 2.72449 36.6029 2.72449C36.4581 2.72449 36.2575 2.72449 36.0013 2.72449C35.745 2.72449 35.3996 2.72449 34.9651 2.72449L34.9651 9.05867L37.1545 9.05867C37.2436 9.05867 37.3383 9.04753 37.4386 9.02525C37.5389 9.00296 37.6336 8.98068 37.7227 8.95839C38.057 8.85812 38.3466 8.71049 38.5918 8.51551C38.8369 8.32052 39.043 8.08933 39.2102 7.82192C39.3773 7.55451 39.5026 7.26204 39.5862 6.9445C39.6698 6.62696 39.7116 6.30663 39.7116 5.98351L39.7116 5.98351L39.7116 5.98351ZM42.2513 6.03366C42.2513 6.90273 42.1151 7.68266 41.8425 8.37346C41.5699 9.06426 41.1862 9.64642 40.6913 10.12C40.1963 10.5935 39.5985 10.9556 38.8978 11.2063C38.197 11.457 37.424 11.5823 36.5786 11.5823L32.4742 11.5656L32.4742 0.21759L36.5786 0.21759C37.424 0.21759 38.1942 0.359655 38.8894 0.643783C39.5846 0.927913 40.1824 1.32624 40.6829 1.83877C41.1834 2.35129 41.5699 2.96408 41.8425 3.67714C42.1151 4.39026 42.2513 5.17572 42.2513 6.03366L42.2513 6.03366L42.2513 6.03366ZM27.5595 0.217263L30.0665 0.217263L30.0665 11.9998L23.1808 5.71578L23.1808 11.5653L20.6738 11.5653L20.6738 0L27.5595 6.13359L27.5595 0.217263L27.5595 0.217263ZM12.753 9.04198L18.2683 9.04198L18.2683 11.5656L10.2126 11.5656L10.2126 0.21759L18.2683 0.21759L18.2683 2.74122L12.753 2.74122L12.7697 4.88045L18.168 4.88045L18.1513 7.27042L12.753 7.27042L12.753 9.04198L12.753 9.04198ZM2.50842 5.78326L4.09614 5.78326C4.51953 5.78326 4.851 5.63286 5.09053 5.33207C5.33006 5.03121 5.44986 4.66908 5.44986 4.24569C5.44986 3.84463 5.33006 3.49363 5.09053 3.19277C4.851 2.89197 4.51953 2.74158 4.09614 2.74158L2.50842 2.74158L2.50842 5.78326L2.50842 5.78326ZM4.09469 0.21759C4.66288 0.21759 5.19214 0.315056 5.6824 0.510052C6.17266 0.705049 6.60159 0.980845 6.96925 1.33737C7.33698 1.6939 7.62385 2.11729 7.82998 2.60755C8.03611 3.09775 8.13917 3.63814 8.13917 4.22866C8.13917 5.18685 7.91638 6.01138 7.47065 6.70218C7.02499 7.39297 6.39546 7.85536 5.58214 8.08934L8.5069 11.5656L5.43167 11.5656L2.50691 8.1562L2.50691 11.5656L0 11.5656L0 0.21759L4.09469 0.21759L4.09469 0.21759Z" id="RENDERPUB" fill="#E5E5E5" fill-rule="evenodd" stroke="none" />
        </g>
      </g>
      <path d="M72.8106 22.2567C74.9457 22.2567 76.6033 22.9031 77.7835 24.1959C78.9637 25.4887 79.5538 27.2972 79.5538 29.6215C79.5538 31.9459 78.9637 33.7522 77.7835 35.0404C76.6033 36.3287 74.9457 36.9729 72.8106 36.9729C70.6664 36.9729 69.0043 36.3287 67.8241 35.0404C66.6439 33.7522 66.0538 31.9459 66.0538 29.6215C66.0538 27.2972 66.6439 25.4887 67.8241 24.1959C69.0043 22.9031 70.6664 22.2567 72.8106 22.2567L72.8106 22.2567ZM72.8105 24.554C71.4772 24.554 70.4614 24.9864 69.7632 25.8513C69.065 26.7162 68.7159 27.9729 68.7159 29.6216C68.7159 31.2612 69.065 32.5134 69.7632 33.3783C70.4614 34.2432 71.4772 34.6756 72.8105 34.6756C74.1348 34.6756 75.1483 34.2432 75.8511 33.3783C76.5537 32.5134 76.9051 31.2612 76.9051 29.6216C76.9051 27.9819 76.5537 26.7274 75.8511 25.8581C75.1483 24.9887 74.1348 24.554 72.8105 24.554L72.8105 24.554ZM59.9998 17.2703L62.5943 17.2703L62.5943 19.9324L59.9998 19.9324L59.9998 17.2703ZM59.9998 22.527L62.5943 22.527L62.5943 36.7567L59.9998 36.7567L59.9998 22.527ZM53.3376 34.9594C52.725 35.6621 52.0741 36.1733 51.3849 36.4932C50.6958 36.813 49.9368 36.9729 49.1079 36.9729C47.1169 36.9729 45.5764 36.3558 44.4863 35.1215C43.3962 33.8873 42.8512 32.1351 42.8512 29.8648C42.8512 27.5045 43.4976 25.6509 44.7904 24.304C46.0832 22.9572 47.8737 22.2838 50.162 22.2838C50.9908 22.2838 51.9953 22.4144 53.1755 22.6756L53.1755 16L55.7701 16L55.7701 36.7296L53.7025 36.7296L53.3376 34.9594ZM49.27 34.6756C50.18 34.6756 50.975 34.4324 51.6552 33.9459C52.3354 33.4594 52.8421 32.7747 53.1754 31.8918L53.1754 25C52.4367 24.8198 51.8827 24.7049 51.5133 24.6554C51.1439 24.6058 50.7025 24.5811 50.189 24.5811C48.7115 24.5811 47.5628 25.0473 46.743 25.9797C45.9232 26.9121 45.5133 28.2072 45.5133 29.8648C45.5133 31.3963 45.8399 32.581 46.493 33.4189C47.1462 34.2567 48.0719 34.6756 49.27 34.6756L49.27 34.6756ZM29.9053 31.7161C29.9053 32.7522 30.1216 33.5089 30.554 33.9864C30.9864 34.4639 31.6846 34.7026 32.6486 34.7026C33.4594 34.7026 34.2342 34.5134 34.9729 34.135C35.7116 33.7567 36.3197 33.2477 36.7972 32.608L36.7972 22.527L39.3918 22.527L39.3918 36.7567L37.2972 36.7567L36.9594 34.7972C35.7071 36.2747 34.1035 37.0089 32.1486 36.9999C30.563 36.9999 29.358 36.5675 28.5337 35.7026C27.7094 34.8377 27.2972 33.5765 27.2972 31.9188L27.2972 22.527L29.9053 22.527L29.9053 31.7161ZM24.7026 36.2837C23.6305 36.7072 22.6351 36.9189 21.7161 36.9189C20.3468 36.9189 19.304 36.5653 18.5878 35.8581C17.8716 35.1508 17.5135 34.1126 17.5135 32.7432L17.5135 24.7703L15.027 24.7703L15.027 22.527L17.6486 22.527L18.2026 18.4595L20.1216 18.4595L20.1216 22.527L24.4594 22.527L24.4594 24.7703L20.1216 24.7703L20.1216 32.3243C20.1216 33.1351 20.2815 33.7162 20.6013 34.0675C20.9211 34.4189 21.4504 34.5945 22.1891 34.5945C22.8378 34.5945 23.5134 34.4774 24.2161 34.2432L24.7026 36.2837ZM8.08105 16.946C9.64861 16.937 11.2702 17.2838 12.9459 17.9865L12.2837 20.4324C10.6081 19.7838 9.18916 19.4595 8.027 19.4595C6.84682 19.4595 5.90989 19.6892 5.2162 20.1487C4.52251 20.6081 4.17566 21.2478 4.17566 22.0676C4.17566 22.6622 4.29954 23.1554 4.54728 23.5473C4.79503 23.9392 5.2162 24.2928 5.81079 24.6081C6.40538 24.9234 7.23421 25.2387 8.29727 25.554C10.1982 26.1036 11.5495 26.8266 12.3513 27.723C13.1531 28.6193 13.554 29.8333 13.554 31.3648C13.554 33.1216 12.9639 34.5 11.7837 35.5C10.6036 36.4999 8.98195 36.9999 6.9189 36.9999C5.14413 36.9999 3.17116 36.5405 1 35.6216L1.79729 33.2162C3.01351 33.6937 3.98197 34.0247 4.70269 34.2094C5.42341 34.3941 6.16214 34.4864 6.9189 34.4864C8.11709 34.4864 9.06303 34.2094 9.75672 33.6554C10.4504 33.1013 10.7973 32.3468 10.7973 31.3919C10.7973 30.7793 10.6666 30.2702 10.4054 29.8648C10.1441 29.4594 9.69591 29.0946 9.06078 28.7702C8.42565 28.4459 7.527 28.1261 6.36484 27.8108C4.59008 27.3333 3.31981 26.6757 2.55405 25.8378C1.78829 25 1.4054 23.8694 1.4054 22.4459C1.4054 20.7072 1.99774 19.3559 3.18242 18.3919C4.3671 17.428 5.99998 16.946 8.08105 16.946L8.08105 16.946Z" id="Studio" fill="#E5E5E5" stroke="none" />
    </g>
  </g>
</svg>